<svg width="20" height="20" viewBox="0 0 20 20" fill="none" xmlns="http://www.w3.org/2000/svg">
    <path fill-rule="evenodd" clip-rule="evenodd"
          d="M19.8816 10.0004C19.8816 15.2602 15.6177 19.5242 10.3578 19.5242C8.83429 19.5242 7.39433 19.1665 6.11734 18.5304C5.77799 18.3614 5.39011 18.3051 5.02388 18.4031L2.90384 18.9704C1.98352 19.2166 1.14156 18.3746 1.3878 17.4543L1.95505 15.3343C2.05304 14.9681 1.99678 14.5802 1.82776 14.2408C1.19171 12.9638 0.833984 11.5239 0.833984 10.0004C0.833984 4.74052 5.09794 0.476562 10.3578 0.476562C15.6177 0.476562 19.8816 4.74052 19.8816 10.0004ZM10.3578 5.47656C10.7523 5.47656 11.0721 5.79636 11.0721 6.19085V13.8099C11.0721 14.2044 10.7523 14.5242 10.3578 14.5242C9.9633 14.5242 9.64351 14.2044 9.64351 13.8099V6.19085C9.64351 5.79636 9.9633 5.47656 10.3578 5.47656ZM7.26256 8.09561C7.26256 7.70112 6.94276 7.38132 6.54827 7.38132C6.15378 7.38132 5.83398 7.70112 5.83398 8.09561V11.9051C5.83398 12.2996 6.15378 12.6194 6.54827 12.6194C6.94276 12.6194 7.26256 12.2996 7.26256 11.9051V8.09561ZM14.1673 7.38132C14.5618 7.38132 14.8816 7.70112 14.8816 8.09561V11.9051C14.8816 12.2996 14.5618 12.6194 14.1673 12.6194C13.7728 12.6194 13.453 12.2996 13.453 11.9051V8.09561C13.453 7.70112 13.7728 7.38132 14.1673 7.38132Z"
          fill="currentColor"/>
</svg>
