<svg width="27" height="20" viewBox="0 0 27 20" fill="none" xmlns="http://www.w3.org/2000/svg">
    <path fill-rule="evenodd" clip-rule="evenodd"
          d="M0.166687 0H38.1667V1.54167H0.166687V0ZM0.166687 3.07917H38.1667V4.62083H0.166687V3.07917ZM0.166687 6.15417H38.1667V7.69583H0.166687V6.15417ZM0.166687 9.22917H38.1667V10.7708H0.166687V9.22917ZM0.166687 12.3125H38.1667V13.8458H0.166687V12.3125ZM0.166687 15.3833H38.1667V16.925H0.166687V15.3833ZM0.166687 18.4583H38.1667V20H0.166687V18.4583Z"
          fill="#BD3D44"/>
    <path fill-rule="evenodd" clip-rule="evenodd"
          d="M0.166687 1.54163H38.1667V3.07913H0.166687V1.54163ZM0.166687 4.61663H38.1667V6.15413H0.166687V4.61663ZM0.166687 7.69163H38.1667V9.23329H0.166687V7.69163ZM0.166687 10.7708H38.1667V12.3125H0.166687V10.7708ZM0.166687 13.8458H38.1667V15.3875H0.166687V13.8458ZM0.166687 16.9208H38.1667V18.4625H0.166687V16.9208Z"
          fill="white"/>
    <path fill-rule="evenodd" clip-rule="evenodd" d="M0.166687 0H15.3667V10.7708H0.166687V0Z" fill="#192F5D"/>
    <path fill-rule="evenodd" clip-rule="evenodd"
          d="M1.43333 0.458374L1.57499 0.887541H2.01666L1.65833 1.15004L1.79583 1.57921L1.43333 1.31254L1.07499 1.57504L1.20833 1.15004L0.845825 0.887541H1.29999L1.43333 0.458374ZM3.96666 0.458374L4.10416 0.887541H4.55416L4.19166 1.15004L4.32499 1.57921L3.96666 1.31254L3.60416 1.57504L3.74166 1.15004L3.38333 0.887541H3.82499L3.96666 0.458374ZM6.49999 0.458374L6.63749 0.887541H7.08333L6.72499 1.15004L6.86249 1.57921L6.49999 1.31254L6.13749 1.57504L6.27499 1.15004L5.91249 0.887541H6.36249L6.49999 0.458374ZM9.03333 0.458374L9.17083 0.887541H9.62082L9.25833 1.15004L9.39583 1.57921L9.03333 1.31254L8.67083 1.57504L8.81249 1.15004L8.44583 0.887541H8.89166L9.03333 0.458374ZM11.5667 0.458374L11.7042 0.887541H12.15L11.7917 1.15004L11.9292 1.57921L11.5667 1.31254L11.2042 1.57504L11.3417 1.15004L10.9833 0.887541H11.4292L11.5667 0.458374ZM14.1 0.458374L14.2375 0.887541H14.6875L14.3208 1.15004L14.4625 1.57921L14.1 1.31254L13.7375 1.57504L13.8792 1.15004L13.5125 0.887541H13.9625L14.1 0.458374ZM2.69999 1.54171L2.83749 1.96671H3.29166L2.92916 2.22504L3.06249 2.65421L2.70833 2.39171L2.34583 2.65421L2.47499 2.22504L2.12499 1.96671H2.57083L2.69999 1.54171ZM5.23333 1.54171L5.37499 1.96671H5.82083L5.45416 2.22504L5.59583 2.65421L5.23333 2.39171L4.87083 2.65421L5.00833 2.22504L4.64583 1.96671H5.09583L5.23333 1.54171ZM7.76666 1.54171L7.90416 1.96671H8.35416L7.99166 2.22504L8.12916 2.65421L7.76666 2.39171L7.40416 2.65421L7.54166 2.22504L7.18332 1.96671H7.62499L7.76666 1.54171ZM10.3 1.54171L10.4417 1.96671H10.8875L10.5208 2.22504L10.6625 2.65421L10.3 2.39171L9.94166 2.65421L10.075 2.22504L9.71249 1.96671H10.1667L10.3 1.54171ZM12.8333 1.54171L12.9708 1.96671H13.4208L13.0583 2.22504L13.1958 2.65421L12.8333 2.39171L12.4708 2.65421L12.6083 2.22504L12.25 1.96671H12.6958L12.8333 1.54171ZM1.43333 2.60837L1.57499 3.04171H2.01666L1.65833 3.30421L1.79583 3.72921L1.43333 3.46671L1.07499 3.72921L1.20833 3.30421L0.845825 3.04171H1.29999L1.43333 2.60837ZM3.96666 2.60837L4.10416 3.04171H4.55416L4.19166 3.30421L4.32499 3.72921L3.96666 3.46671L3.60416 3.72921L3.74166 3.30004L3.38333 3.03754H3.82499L3.96666 2.60837ZM6.49999 2.60837L6.63749 3.03754H7.08333L6.72499 3.30004L6.86249 3.72504L6.49999 3.46254L6.13749 3.72504L6.27499 3.29587L5.91249 3.03337H6.36249L6.49999 2.60837ZM9.03333 2.60837L9.17083 3.03754H9.62082L9.25833 3.30004L9.39583 3.72504L9.03333 3.46254L8.67083 3.72504L8.81249 3.29587L8.44583 3.03337H8.89166L9.03333 2.60837ZM11.5667 2.60837L11.7042 3.03754H12.15L11.7917 3.30004L11.9292 3.72504L11.5667 3.46254L11.2042 3.72504L11.3417 3.29587L10.9833 3.03337H11.4292L11.5667 2.60837ZM14.1 2.60837L14.2375 3.03754H14.6875L14.3208 3.30004L14.4625 3.72504L14.1 3.46254L13.7375 3.72504L13.8792 3.29587L13.5125 3.03337H13.9625L14.1 2.60837ZM2.69999 3.69171L2.83749 4.11671H3.29166L2.92916 4.37921L3.06666 4.80837L2.70416 4.54171L2.34166 4.80421L2.47916 4.37921L2.12083 4.11671H2.56666L2.69999 3.69171ZM5.23333 3.69171L5.37499 4.11671H5.82083L5.45416 4.37921L5.59583 4.80837L5.23333 4.54171L4.87083 4.80421L5.00833 4.37921L4.64583 4.11671H5.09583L5.23333 3.69171ZM7.76666 3.69171L7.90416 4.11671H8.35416L7.99166 4.37921L8.12916 4.80837L7.76666 4.54171L7.40416 4.80421L7.54166 4.37921L7.18332 4.11671H7.62499L7.76666 3.69171ZM10.3 3.69171L10.4417 4.11671H10.8875L10.525 4.37921L10.6625 4.80837L10.3 4.54171L9.94166 4.80421L10.075 4.37921L9.71249 4.11671H10.1667L10.3 3.69171ZM12.8333 3.69171L12.9708 4.11671H13.4208L13.0583 4.37921L13.1958 4.80837L12.8333 4.54171L12.4708 4.80421L12.6083 4.37921L12.25 4.11671H12.6958L12.8333 3.69171ZM1.43333 4.77087L1.57499 5.19587H2.01666L1.65833 5.45837L1.79583 5.88754L1.43333 5.62087L1.07499 5.88337L1.20833 5.45837L0.845825 5.19587H1.29999L1.43333 4.77087ZM3.96666 4.77087L4.10416 5.19587H4.55416L4.19166 5.45837L4.32499 5.88337L3.96666 5.62087L3.60416 5.88337L3.74166 5.45837L3.38333 5.19587H3.82499L3.96666 4.77087ZM6.49999 4.77087L6.63749 5.19587H7.08333L6.72499 5.45837L6.86249 5.88754L6.49999 5.62087L6.13749 5.88337L6.27499 5.45837L5.91249 5.19587H6.36249L6.49999 4.77087ZM9.03333 4.77087L9.17083 5.19587H9.62082L9.25833 5.45837L9.39583 5.88754L9.03333 5.62087L8.67083 5.88337L8.81249 5.45837L8.44583 5.19587H8.89166L9.03333 4.77087ZM11.5667 4.77087L11.7042 5.19587H12.15L11.7917 5.45837L11.9292 5.88754L11.5667 5.62087L11.2042 5.88337L11.3417 5.45837L10.9833 5.19587H11.4292L11.5667 4.77087ZM14.1 4.77087L14.2375 5.19587H14.6875L14.3208 5.45837L14.4625 5.88754L14.1 5.62087L13.7375 5.88337L13.875 5.45837L13.5083 5.19587H13.9583L14.1 4.77087ZM2.69999 5.84587L2.83749 6.27504H3.29166L2.92916 6.53337L3.06666 6.96254L2.70416 6.69587L2.34166 6.96254L2.47916 6.53337L2.12083 6.27087H2.56666L2.69999 5.84587ZM5.23333 5.84587L5.37499 6.27504H5.82083L5.45416 6.53337L5.59583 6.96254L5.23333 6.69587L4.87083 6.96254L5.00833 6.53337L4.64583 6.27087H5.09583L5.23333 5.84587ZM7.76666 5.84587L7.90416 6.27504H8.35416L7.99166 6.53337L8.12916 6.96254L7.76666 6.69587L7.40416 6.96254L7.54166 6.53337L7.18332 6.27087H7.62499L7.76666 5.84587ZM10.3 5.84587L10.4417 6.27504H10.8875L10.525 6.53337L10.6625 6.96254L10.3 6.69587L9.94166 6.96254L10.075 6.53337L9.71249 6.27087H10.1667L10.3 5.84587ZM12.8333 5.84587L12.9708 6.27504H13.4208L13.0583 6.53337L13.1958 6.96254L12.8333 6.69587L12.4708 6.96254L12.6083 6.53337L12.25 6.27087H12.6958L12.8333 5.84587ZM1.43333 6.92087L1.57499 7.35004H2.01666L1.65833 7.61254L1.79583 8.03337L1.43333 7.77504L1.07499 8.03337L1.20833 7.60837L0.845825 7.34587H1.29999L1.43333 6.92087ZM3.96666 6.92087L4.10416 7.35004H4.55416L4.19166 7.61254L4.32916 8.03337L3.96666 7.77504L3.60416 8.03337L3.74583 7.60837L3.38333 7.34587H3.82499L3.96666 6.92087ZM6.49999 6.92087L6.63749 7.35004H7.08333L6.72499 7.61254L6.86249 8.03337L6.49999 7.77504L6.13749 8.03337L6.27499 7.60837L5.91249 7.34587H6.36249L6.49999 6.92087ZM9.03333 6.92087L9.17083 7.35004H9.62082L9.25833 7.61254L9.39583 8.03337L9.03333 7.77504L8.67083 8.03337L8.81249 7.60837L8.44583 7.34587H8.89166L9.03333 6.92087ZM11.5667 6.92087L11.7042 7.35004H12.15L11.7917 7.61254L11.9292 8.03337L11.5667 7.77504L11.2042 8.03337L11.3417 7.60837L10.9833 7.34587H11.4292L11.5667 6.92087ZM14.1 6.92087L14.2375 7.35004H14.6875L14.3208 7.61254L14.4625 8.03337L14.1 7.77504L13.7375 8.03337L13.8792 7.60837L13.5125 7.34587H13.9625L14.1 6.92087ZM2.69999 8.00004L2.83749 8.42504H3.29166L2.92916 8.68754L3.06666 9.11671L2.70416 8.85004L2.34166 9.11254L2.47916 8.68754L2.12083 8.42504H2.56666L2.69999 8.00004ZM5.23333 8.00004L5.37499 8.42504H5.82083L5.45416 8.68754L5.59583 9.11671L5.23333 8.85004L4.87083 9.11254L5.00833 8.68754L4.64583 8.42504H5.09583L5.23333 8.00004ZM7.76666 8.00004L7.90416 8.42504H8.35416L7.99166 8.68754L8.12916 9.11671L7.76666 8.85004L7.40416 9.11254L7.54166 8.68754L7.18332 8.42504H7.62499L7.76666 8.00004ZM10.3 8.00004L10.4417 8.42504H10.8875L10.525 8.68754L10.6625 9.11671L10.3 8.85004L9.94166 9.11254L10.075 8.68754L9.71249 8.42504H10.1667L10.3 8.00004ZM12.8333 8.00004L12.9708 8.42504H13.4208L13.0583 8.68754L13.1958 9.11671L12.8333 8.85004L12.4708 9.11254L12.6083 8.68754L12.25 8.42504H12.6958L12.8333 8.00004ZM1.43333 9.07921L1.57499 9.50421H2.01666L1.65833 9.76671L1.79583 10.1917L1.43333 9.92921L1.07499 10.1917L1.20833 9.76254L0.845825 9.50004H1.29999L1.43333 9.07921ZM3.96666 9.07921L4.10416 9.50421H4.55416L4.19166 9.76671L4.32916 10.1917L3.96666 9.92921L3.60416 10.1917L3.74583 9.76254L3.38333 9.50004H3.82499L3.96666 9.07921ZM6.49999 9.07921L6.63749 9.50421H7.08333L6.73333 9.76671L6.87082 10.1917L6.50833 9.92921L6.14583 10.1917L6.28333 9.76254L5.92083 9.50004H6.37082L6.49999 9.07921ZM9.03333 9.07921L9.17083 9.50421H9.62082L9.25833 9.76671L9.39583 10.1917L9.03333 9.92921L8.67083 10.1917L8.81249 9.76254L8.44583 9.50004H8.89166L9.03333 9.07921ZM11.5667 9.07921L11.7042 9.50421H12.15L11.7917 9.76671L11.9292 10.1917L11.5667 9.92921L11.2042 10.1917L11.3417 9.76254L10.9833 9.50004H11.4292L11.5667 9.07921ZM14.1 9.07921L14.2375 9.50421H14.6875L14.3208 9.76671L14.4625 10.1917L14.1 9.92921L13.7375 10.1917L13.8792 9.76254L13.5125 9.50004H13.9625L14.1 9.07921Z"
          fill="white"/>
</svg>
