<svg xmlns="http://www.w3.org/2000/svg" xmlns:xlink="http://www.w3.org/1999/xlink"><defs><symbol fill="none" viewBox="0 0 18 18" id="icon-arrow-left"><g stroke="currentColor" stroke-width="2" stroke-linecap="round" stroke-linejoin="round"><path d="M15 9H3M7.5 13.5L3 9l4.5-4.5" /></g></symbol><symbol fill="none" viewBox="0 0 24 24" id="icon-arrow-right"><g stroke="currentColor" stroke-width="2" stroke-linecap="round" stroke-linejoin="round"><path d="M4 12h16M14 6l6 6-6 6" /></g></symbol><symbol fill="none" viewBox="0 0 20 20" id="icon-chat"><path fill-rule="evenodd" clip-rule="evenodd" d="M19.882 10a9.524 9.524 0 01-9.524 9.524 9.484 9.484 0 01-4.24-.994 1.556 1.556 0 00-1.094-.127l-2.12.567a1.238 1.238 0 01-1.516-1.516l.567-2.12a1.556 1.556 0 00-.127-1.093A9.484 9.484 0 01.834 10a9.524 9.524 0 1119.048 0zm-9.524-4.523c.394 0 .714.32.714.714v7.619a.714.714 0 11-1.428 0V6.19c0-.394.32-.713.714-.713zM7.263 8.096a.714.714 0 00-1.429 0v3.81a.714.714 0 101.429 0v-3.81zm6.904-.715c.395 0 .715.32.715.715v3.81a.714.714 0 11-1.429 0v-3.81c0-.395.32-.715.714-.715z" fill="currentColor" /></symbol><symbol fill="none" viewBox="0 0 24 24" id="icon-cross"><g stroke="currentColor" stroke-width="1.5" stroke-linecap="round" stroke-linejoin="round"><path d="M18 6L6 18M6 6l12 12" /></g></symbol><symbol fill="none" viewBox="0 0 24 24" id="icon-eye"><g fill-rule="evenodd" clip-rule="evenodd" fill="currentColor"><path d="M12 9a3 3 0 100 6 3 3 0 000-6zm-1.8 3a1.8 1.8 0 113.6 0 1.8 1.8 0 01-3.6 0z" /><path d="M12 5C8.389 5 5.956 7.163 4.544 8.997l-.025.034c-.32.414-.613.796-.813 1.248-.213.483-.306 1.01-.306 1.721 0 .71.093 1.238.306 1.721.2.452.494.834.813 1.248l.025.034C5.956 16.837 8.39 19 12 19s6.044-2.163 7.456-3.998l.025-.033c.32-.414.613-.796.813-1.248.213-.483.306-1.01.306-1.721 0-.71-.093-1.238-.306-1.721-.2-.452-.494-.834-.813-1.248l-.025-.034C18.044 7.163 15.61 5 12 5zM5.495 9.73C6.8 8.035 8.92 6.2 12 6.2s5.201 1.836 6.505 3.53c.35.455.556.728.691 1.034.127.286.204.635.204 1.236 0 .6-.077.95-.204 1.236-.135.306-.34.579-.691 1.035C17.2 15.964 15.08 17.8 12 17.8s-5.201-1.836-6.505-3.53c-.35-.455-.556-.728-.691-1.034C4.677 12.95 4.6 12.601 4.6 12c0-.6.077-.95.204-1.236.135-.306.34-.579.691-1.035z" /></g></symbol><symbol fill="none" viewBox="0 0 24 24" id="icon-eye-closed"><path fill-rule="evenodd" clip-rule="evenodd" d="M20.236 7.449a.6.6 0 01.316.787L20 8l.552.236-.001.002v.002l-.003.006-.009.019a7.757 7.757 0 01-.148.306 12.034 12.034 0 01-1.942 2.733l.775.775a.6.6 0 01-.848.848l-.8-.8a9.236 9.236 0 01-1.82 1.198l.747 1.148a.6.6 0 11-1.006.654l-.871-1.339a8.334 8.334 0 01-2.026.392v1.42a.6.6 0 01-1.2 0v-1.42a8.338 8.338 0 01-1.968-.373l-.86 1.32a.6.6 0 01-1.005-.654l.73-1.122a9.204 9.204 0 01-1.834-1.192l-.769.768a.6.6 0 11-.848-.848l.739-.74A12.022 12.022 0 013.61 8.577a7.644 7.644 0 01-.15-.31l-.008-.02-.003-.006v-.002l-.001-.001L4 8l-.551.237a.6.6 0 011.102-.474v.002l.006.01.023.051a9.91 9.91 0 00.52.942c.38.608.957 1.398 1.745 2.13.692.643 1.541 1.236 2.556 1.627A7.174 7.174 0 0012 13a7.17 7.17 0 002.65-.495c1.01-.398 1.852-.994 2.54-1.64a10.644 10.644 0 002.23-3.04l.023-.05.005-.01v-.001m.788-.315a.6.6 0 00-.788.315l.788-.315zm-15.685.314z" fill="currentColor" /></symbol><symbol fill="none" viewBox="0 0 96 28" id="icon-pay2me-logo"><g fill="currentColor"><path d="M6.452.316H0V28h4.381V17.599h2.071c4.381 0 6.532-2.413 6.532-6.842V7.158c0-4.43-2.15-6.842-6.532-6.842zm0 3.955c1.394 0 2.15.633 2.15 2.61v4.153c0 1.977-.756 2.61-2.15 2.61h-2.07V4.271h2.07zM24.42.316h-6.412L13.548 28h4.022l.757-5.023h5.376L24.46 28h4.421L24.421.316zM20.995 5.22l2.111 14h-4.222l2.111-14zM35.024 28h4.38v-9.175L44.942.316h-4.182l-3.346 12.616L34.068.316h-4.58l5.536 18.509V28zM55.395 7.119c0 7.988-8.682 9.333-8.682 17.48V28h12.665v-3.955h-8.284c-.04-.198-.04-.395-.04-.593 0-4.548 8.722-7.791 8.722-16.492 0-4.429-2.23-6.96-6.532-6.96-4.301 0-6.531 2.531-6.531 6.96v2.69h4.142V6.684c0-1.978.876-2.73 2.27-2.73 1.394 0 2.27.673 2.27 3.165zM68.558.316h-6.094V28h3.823V8.424L69.553 28h4.143l3.026-19.853V28h4.143V.316H74.77l-2.987 19.656L68.558.316zM88.433 4.271H96V.316H84.052V28H96v-3.955h-7.567v-8.107h6.014v-3.955h-6.014V4.271z" /></g></symbol><symbol fill="none" viewBox="0 0 27 20" id="icon-ru"><path fill-rule="evenodd" clip-rule="evenodd" d="M.167 0h26.666v20H.167V0z" fill="#fff" /><path fill-rule="evenodd" clip-rule="evenodd" d="M.167 6.667h26.666V20H.167V6.667z" fill="#0039A6" /><path fill-rule="evenodd" clip-rule="evenodd" d="M.167 13.333h26.666V20H.167v-6.667z" fill="#D52B1E" /></symbol><symbol fill="none" viewBox="0 0 27 20" id="icon-usa"><path fill-rule="evenodd" clip-rule="evenodd" d="M.167 0h38v1.542h-38V0zm0 3.08h38v1.54h-38V3.08zm0 3.074h38v1.542h-38V6.154zm0 3.075h38v1.542h-38V9.229zm0 3.084h38v1.533h-38v-1.534zm0 3.07h38v1.542h-38v-1.542zm0 3.075h38V20h-38v-1.542z" fill="#BD3D44" /><path fill-rule="evenodd" clip-rule="evenodd" d="M.167 1.542h38v1.537h-38V1.542zm0 3.075h38v1.537h-38V4.617zm0 3.075h38v1.541h-38V7.692zm0 3.079h38v1.541h-38v-1.541zm0 3.075h38v1.541h-38v-1.541zm0 3.075h38v1.541h-38v-1.541z" fill="#fff" /><path fill-rule="evenodd" clip-rule="evenodd" d="M.167 0h15.2v10.77H.167V0z" fill="#192F5D" /><path fill-rule="evenodd" clip-rule="evenodd" d="M1.433.458l.142.43h.442l-.359.262.138.43-.363-.267-.358.262.133-.425L.846.888H1.3l.133-.43zm2.534 0l.137.43h.45l-.362.262.133.43-.358-.267-.363.262.138-.425-.359-.262h.442l.142-.43zm2.533 0l.137.43h.446l-.358.262.137.43-.362-.267-.363.262.138-.425-.363-.262h.45L6.5.458zm2.533 0l.138.43h.45l-.363.262.138.43-.363-.267-.362.262.141-.425-.366-.262h.446l.141-.43zm2.534 0l.137.43h.446l-.358.262.137.43-.362-.267-.363.262.138-.425-.359-.262h.446l.138-.43zm2.533 0l.138.43h.45l-.367.262.142.43-.363-.267-.362.262.141-.425-.367-.262h.45l.138-.43zM2.7 1.542l.137.425h.455l-.363.258.133.43-.354-.263-.362.262.129-.429-.35-.258h.446l.129-.425zm2.533 0l.142.425h.446l-.367.258.142.43-.363-.263-.362.262.137-.429-.362-.258h.45l.137-.425zm2.534 0l.137.425h.45l-.362.258.137.43-.362-.263-.363.262.138-.429-.359-.258h.442l.142-.425zm2.533 0l.142.425h.445l-.366.258.141.43-.362-.263-.358.262.133-.429-.363-.258h.455l.133-.425zm2.533 0l.138.425h.45l-.363.258.138.43-.363-.263-.362.262.137-.429-.358-.258h.446l.137-.425zm-11.4 1.066l.142.434h.442l-.359.262.138.425-.363-.262-.358.262.133-.425-.362-.262H1.3l.133-.434zm2.534 0l.137.434h.45l-.362.262.133.425-.358-.262-.363.262.138-.429-.359-.262h.442l.142-.43zm2.533 0l.137.43h.446l-.358.262.137.425-.362-.262-.363.262.138-.43-.363-.262h.45l.138-.425zm2.533 0l.138.43h.45l-.363.262.138.425-.363-.262-.362.262.141-.43-.366-.262h.446l.141-.425zm2.534 0l.137.43h.446l-.358.262.137.425-.362-.262-.363.262.138-.43-.359-.262h.446l.138-.425zm2.533 0l.138.43h.45l-.367.262.142.425-.363-.262-.362.262.141-.43-.367-.262h.45l.138-.425zM2.7 3.692l.137.425h.455l-.363.262.138.43-.363-.267-.362.262.137-.425-.358-.262h.446l.133-.425zm2.533 0l.142.425h.446l-.367.262.142.43-.363-.267-.362.262.137-.425-.362-.262h.45l.137-.425zm2.534 0l.137.425h.45l-.362.262.137.43-.362-.267-.363.262.138-.425-.359-.262h.442l.142-.425zm2.533 0l.142.425h.445l-.362.262.137.43-.362-.267-.358.262.133-.425-.363-.262h.455l.133-.425zm2.533 0l.138.425h.45l-.363.262.138.43-.363-.267-.362.262.137-.425-.358-.262h.446l.137-.425zM1.433 4.77l.142.425h.442l-.359.262.138.43-.363-.267-.358.262.133-.425-.362-.262H1.3l.133-.425zm2.534 0l.137.425h.45l-.362.262.133.425-.358-.262-.363.262.138-.425-.359-.262h.442l.142-.425zm2.533 0l.137.425h.446l-.358.262.137.43L6.5 5.62l-.363.262.138-.425-.363-.262h.45L6.5 4.77zm2.533 0l.138.425h.45l-.363.262.138.43-.363-.267-.362.262.141-.425-.366-.262h.446l.141-.425zm2.534 0l.137.425h.446l-.358.262.137.43-.362-.267-.363.262.138-.425-.359-.262h.446l.138-.425zm2.533 0l.138.425h.45l-.367.262.142.43-.363-.267-.362.262.137-.425-.367-.262h.45l.142-.425zM2.7 5.846l.137.429h.455l-.363.258.138.43-.363-.267-.362.267.137-.43-.358-.262h.446l.133-.425zm2.533 0l.142.429h.446l-.367.258.142.43-.363-.267-.362.267.137-.43-.362-.262h.45l.137-.425zm2.534 0l.137.429h.45l-.362.258.137.43-.362-.267-.363.267.138-.43-.359-.262h.442l.142-.425zm2.533 0l.142.429h.445l-.362.258.137.43-.362-.267-.358.267.133-.43-.363-.262h.455l.133-.425zm2.533 0l.138.429h.45l-.363.258.138.43-.363-.267-.362.267.137-.43-.358-.262h.446l.137-.425zM1.433 6.92l.142.429h.442l-.359.263.138.42-.363-.258-.358.258.133-.425-.362-.262H1.3l.133-.425zm2.534 0l.137.429h.45l-.362.263.137.42-.362-.258-.363.258.142-.425-.363-.262h.442l.142-.425zm2.533 0l.137.429h.446l-.358.263.137.42-.362-.258-.363.258.138-.425-.363-.262h.45L6.5 6.92zm2.533 0l.138.429h.45l-.363.263.138.42-.363-.258-.362.258.141-.425-.366-.262h.446l.141-.425zm2.534 0l.137.429h.446l-.358.263.137.42-.362-.258-.363.258.138-.425-.359-.262h.446l.138-.425zm2.533 0l.138.429h.45l-.367.263.142.42-.363-.258-.362.258.141-.425-.367-.262h.45l.138-.425zM2.7 8l.137.425h.455l-.363.263.138.429-.363-.267-.362.263.137-.425-.358-.263h.446L2.7 8zm2.533 0l.142.425h.446l-.367.263.142.429-.363-.267-.362.263.137-.425-.362-.263h.45L5.233 8zm2.534 0l.137.425h.45l-.362.263.137.429-.362-.267-.363.263.138-.425-.359-.263h.442L7.767 8zM10.3 8l.142.425h.445l-.362.263.137.429-.362-.267-.358.263.133-.425-.363-.263h.455L10.3 8zm2.533 0l.138.425h.45l-.363.263.138.429-.363-.267-.362.263.137-.425-.358-.263h.446L12.833 8zm-11.4 1.08l.142.424h.442l-.359.263.138.425-.363-.263-.358.263.133-.43L.846 9.5H1.3l.133-.42zm2.534 0l.137.424h.45l-.362.263.137.425-.362-.263-.363.263.142-.43-.363-.262h.442l.142-.42zm2.533 0l.137.424h.446l-.35.263.138.425-.363-.263-.362.263.137-.43-.362-.262h.45l.129-.42zm2.533 0l.138.424h.45l-.363.263.138.425-.363-.263-.362.263.141-.43-.366-.262h.446l.141-.42zm2.534 0l.137.424h.446l-.358.263.137.425-.362-.263-.363.263.138-.43-.359-.262h.446l.138-.42zm2.533 0l.138.424h.45l-.367.263.142.425-.363-.263-.362.263.141-.43-.367-.262h.45l.138-.42z" fill="#fff" /></symbol></defs></svg>